<?xml version="1.0" encoding="UTF-8"?>
<svg id="_레이어_3" data-name="레이어 3" xmlns="http://www.w3.org/2000/svg" xmlns:xlink="http://www.w3.org/1999/xlink" viewBox="0 0 366 187.16">
  <defs>
    <style>
      .cls-1 {
        fill: url(#_무제_그라디언트_26);
      }
    </style>
    <linearGradient id="_무제_그라디언트_26" data-name="무제 그라디언트 26" x1="5.02" y1="163.75" x2="346.83" y2="32.91" gradientUnits="userSpaceOnUse">
      <stop offset="0" stop-color="#374cc1"/>
      <stop offset=".75" stop-color="#50308e"/>
    </linearGradient>
  </defs>
  <path class="cls-1" d="M348.43,1.84c-8.78,0-17.57,2.93-24.89,8.78-11.71,10.25-23.42,35.14-42.46,65.88-19.03,30.74-42.46,70.27-49.78,64.42-5.2-4.16-10.4-25.31-16.12-48.22,18.03-28.32,39.45-62.76,45.4-71.09,7.32-10.25,17.57-20.5,17.57-20.5h-17.57c-8.78,0-17.57,2.93-24.89,8.78-9.04,7.91-18.07,24.53-30.47,45.83C196.94,28.25,186.4,3.01,163.97.38c-24.89-2.93-51.24,10.25-90.77,76.13-21.54,35.89-36.6,60.76-48.31,76.86C13.18,169.47,0,185.57,0,185.57h19.03c7.32,0,16.8-2.16,23.42-8.78,4.39-4.39,17.02-24.83,30.93-46.37,7.29-11.3,14.77-22.94,21.17-32.84,3.2,9.89,6.51,20.52,10.86,35.29,7.32,24.89,13.18,49.78,30.74,52.7,14.3,2.38,37.33-29.18,55.66-56.8.48,1.61.96,3.22,1.43,4.82,7.32,24.89,13.18,50.51,30.74,53.44s48.31-46.12,67.34-75.4c19.03-29.28,49.78-79.06,57.1-89.3,7.32-10.25,17.57-20.5,17.57-20.5h-17.57ZM143.47,140.19c-7.32-5.86-14.64-45.38-23.42-76.13-.2-.72-.4-1.4-.59-2.08,12.12-14.35,24.88-25.01,31.33-25.01,8.78,0,14.64,10.25,20.5,27.82,2.82,8.45,6.32,18.95,10,30.33-15.92,25.57-31.98,49.73-37.82,45.07Z"/>
</svg>